<svg width="180" height="180" viewBox="0 0 180 180" fill="none" xmlns="http://www.w3.org/2000/svg">
  <defs>
    <g id="cornerLines" fill="none" stroke-linecap="round" stroke-linejoin="round">
      <path d="M8 0V124" stroke-width="4.35"/>
      <path d="M56 172H180" stroke-width="4.35"/>
      <path d="M18 8C24 48 39 85 62 111C82 134 108 160 141 172" stroke-width="4.35"/>
    </g>
    <g id="cornerCurls" fill="none" stroke-linecap="round" stroke-linejoin="round">
      <path d="M8 72C8 82.2 11.2 90.5 17 95.8C22 100.4 29.5 101 34.4 96.9C39.4 92.7 40.5 85.2 37 79.9C34 75.3 27.5 73.3 22.3 76C17.9 78.3 15.4 83.4 16.7 88.1C17.7 92 20.8 94.8 24.6 94.6" stroke-width="2.55"/>
      <path d="M108 172C97.8 172 89.5 168.8 84.2 163C79.6 158 79 150.5 83.1 145.6C87.3 140.6 94.8 139.5 100.1 143C104.7 146 106.7 152.5 104 157.7C101.7 162.1 96.6 164.6 91.9 163.3C88 162.3 85.2 159.2 85.4 155.4" stroke-width="2.55"/>
    </g>
  </defs>

  <g transform="translate(0.65 0.65)" opacity="0.32" stroke="#8A6732">
    <use href="#cornerLines"/>
    <use href="#cornerCurls"/>
  </g>
  <g stroke="#C79B55">
    <use href="#cornerLines"/>
    <use href="#cornerCurls"/>
  </g>
  <g opacity="0.28" stroke="#F1DDB0">
    <use href="#cornerLines"/>
    <use href="#cornerCurls"/>
  </g>

  <g transform="translate(36 144)">
    <circle r="22.8" fill="#FEF6E6"/>
    <circle r="22.8" fill="none" stroke="#8A6732" stroke-width="3.5" opacity="0.34"/>
    <circle r="22.8" fill="none" stroke="#C79B55" stroke-width="2.8"/>
    <circle r="18.4" fill="none" stroke="#F1DDB0" stroke-width="1.2" opacity="0.92"/>
    <path d="M0 13.8C-4.7 9.3 -13.3 4.8 -13.3 -2.6C-13.3 -8 -9.5 -11.9 -4.9 -11.9C-2 -11.9 0 -10.2 0 -7.5C0 -10.2 2 -11.9 4.9 -11.9C9.5 -11.9 13.3 -8 13.3 -2.6C13.3 4.8 4.7 9.3 0 13.8Z" transform="translate(0 -0.7)" fill="#F28EB4" stroke="#D15E95" stroke-width="1.5" stroke-linejoin="round"/>
  </g>
</svg>
