<svg width="180" height="180" viewBox="0 0 180 180" fill="none" xmlns="http://www.w3.org/2000/svg">
  <defs>
    <g id="cornerLines" fill="none" stroke-linecap="round" stroke-linejoin="round">
      <path d="M0 172H124" stroke-width="4.35"/>
      <path d="M172 0V124" stroke-width="4.35"/>
      <path d="M162 8C156 48 141 85 118 111C98 134 72 160 39 172" stroke-width="4.35"/>
    </g>
    <g id="cornerCurls" fill="none" stroke-linecap="round" stroke-linejoin="round">
      <path d="M172 72C172 82.2 168.8 90.5 163 95.8C158 100.4 150.5 101 145.6 96.9C140.6 92.7 139.5 85.2 143 79.9C146 75.3 152.5 73.3 157.7 76C162.1 78.3 164.6 83.4 163.3 88.1C162.3 92 159.2 94.8 155.4 94.6" stroke-width="2.55"/>
      <path d="M72 172C82.2 172 90.5 168.8 95.8 163C100.4 158 101 150.5 96.9 145.6C92.7 140.6 85.2 139.5 79.9 143C75.3 146 73.3 152.5 76 157.7C78.3 162.1 83.4 164.6 88.1 163.3C92 162.3 94.8 159.2 94.6 155.4" stroke-width="2.55"/>
    </g>
  </defs>

  <g transform="translate(0.65 0.65)" opacity="0.32" stroke="#8A6732">
    <use href="#cornerLines"/>
    <use href="#cornerCurls"/>
  </g>
  <g stroke="#C79B55">
    <use href="#cornerLines"/>
    <use href="#cornerCurls"/>
  </g>
  <g opacity="0.28" stroke="#F1DDB0">
    <use href="#cornerLines"/>
    <use href="#cornerCurls"/>
  </g>

  <g transform="translate(144 144)">
    <circle r="22.8" fill="#FEF6E6"/>
    <circle r="22.8" fill="none" stroke="#8A6732" stroke-width="3.5" opacity="0.34"/>
    <circle r="22.8" fill="none" stroke="#C79B55" stroke-width="2.8"/>
    <circle r="18.4" fill="none" stroke="#F1DDB0" stroke-width="1.2" opacity="0.92"/>
    <path d="M0 13.8C-4.7 9.3 -13.3 4.8 -13.3 -2.6C-13.3 -8 -9.5 -11.9 -4.9 -11.9C-2 -11.9 0 -10.2 0 -7.5C0 -10.2 2 -11.9 4.9 -11.9C9.5 -11.9 13.3 -8 13.3 -2.6C13.3 4.8 4.7 9.3 0 13.8Z" transform="translate(0 -0.7)" fill="#F28EB4" stroke="#D15E95" stroke-width="1.5" stroke-linejoin="round"/>
  </g>
</svg>
