<svg width="180" height="180" viewBox="0 0 180 180" fill="none" xmlns="http://www.w3.org/2000/svg">
  <defs>
    <g id="cornerLines" fill="none" stroke-linecap="round" stroke-linejoin="round">
      <path d="M8 56V180" stroke-width="4.35"/>
      <path d="M56 8H180" stroke-width="4.35"/>
      <path d="M18 172C24 132 39 95 62 69C82 46 108 20 141 8" stroke-width="4.35"/>
    </g>
    <g id="cornerCurls" fill="none" stroke-linecap="round" stroke-linejoin="round">
      <path d="M108 8C97.8 8 89.5 11.2 84.2 17C79.6 22 79 29.5 83.1 34.4C87.3 39.4 94.8 40.5 100.1 37C104.7 34 106.7 27.5 104 22.3C101.7 17.9 96.6 15.4 91.9 16.7C88 17.7 85.2 20.8 85.4 24.6" stroke-width="2.55"/>
      <path d="M8 108C8 97.8 11.2 89.5 17 84.2C22 79.6 29.5 79 34.4 83.1C39.4 87.3 40.5 94.8 37 100.1C34 104.7 27.5 106.7 22.3 104C17.9 101.7 15.4 96.6 16.7 91.9C17.7 88 20.8 85.2 24.6 85.4" stroke-width="2.55"/>
    </g>
  </defs>

  <g transform="translate(0.65 0.65)" opacity="0.32" stroke="#8A6732">
    <use href="#cornerLines"/>
    <use href="#cornerCurls"/>
  </g>
  <g stroke="#C79B55">
    <use href="#cornerLines"/>
    <use href="#cornerCurls"/>
  </g>
  <g opacity="0.28" stroke="#F1DDB0">
    <use href="#cornerLines"/>
    <use href="#cornerCurls"/>
  </g>

  <g transform="translate(36 36)">
    <circle r="22.8" fill="#FEF6E6"/>
    <circle r="22.8" fill="none" stroke="#8A6732" stroke-width="3.5" opacity="0.34"/>
    <circle r="22.8" fill="none" stroke="#C79B55" stroke-width="2.8"/>
    <circle r="18.4" fill="none" stroke="#F1DDB0" stroke-width="1.2" opacity="0.92"/>
    <path d="M0 13.8C-4.7 9.3 -13.3 4.8 -13.3 -2.6C-13.3 -8 -9.5 -11.9 -4.9 -11.9C-2 -11.9 0 -10.2 0 -7.5C0 -10.2 2 -11.9 4.9 -11.9C9.5 -11.9 13.3 -8 13.3 -2.6C13.3 4.8 4.7 9.3 0 13.8Z" transform="translate(0 -0.7)" fill="#F28EB4" stroke="#D15E95" stroke-width="1.5" stroke-linejoin="round"/>
  </g>
</svg>
