<svg width="180" height="180" viewBox="0 0 180 180" fill="none" xmlns="http://www.w3.org/2000/svg">
  <defs>
    <g id="cornerLines" fill="none" stroke-linecap="round" stroke-linejoin="round">
      <path d="M0 8H124" stroke-width="4.35"/>
      <path d="M172 56V180" stroke-width="4.35"/>
      <path d="M8 18C48 24 85 39 111 62C134 82 160 108 172 141" stroke-width="4.35"/>
    </g>
    <g id="cornerCurls" fill="none" stroke-linecap="round" stroke-linejoin="round">
      <path d="M72 8C82.2 8 90.5 11.2 95.8 17C100.4 22 101 29.5 96.9 34.4C92.7 39.4 85.2 40.5 79.9 37C75.3 34 73.3 27.5 76 22.3C78.3 17.9 83.4 15.4 88.1 16.7C92 17.7 94.8 20.8 94.6 24.6" stroke-width="2.55"/>
      <path d="M172 108C172 97.8 168.8 89.5 163 84.2C158 79.6 150.5 79 145.6 83.1C140.6 87.3 139.5 94.8 143 100.1C146 104.7 152.5 106.7 157.7 104C162.1 101.7 164.6 96.6 163.3 91.9C162.3 88 159.2 85.2 155.4 85.4" stroke-width="2.55"/>
    </g>
  </defs>

  <g transform="translate(0.65 0.65)" opacity="0.32" stroke="#8A6732">
    <use href="#cornerLines"/>
    <use href="#cornerCurls"/>
  </g>
  <g stroke="#C79B55">
    <use href="#cornerLines"/>
    <use href="#cornerCurls"/>
  </g>
  <g opacity="0.28" stroke="#F1DDB0">
    <use href="#cornerLines"/>
    <use href="#cornerCurls"/>
  </g>

  <g transform="translate(144 36)">
    <circle r="22.8" fill="#FEF6E6"/>
    <circle r="22.8" fill="none" stroke="#8A6732" stroke-width="3.5" opacity="0.34"/>
    <circle r="22.8" fill="none" stroke="#C79B55" stroke-width="2.8"/>
    <circle r="18.4" fill="none" stroke="#F1DDB0" stroke-width="1.2" opacity="0.92"/>
    <path d="M0 13.8C-4.7 9.3 -13.3 4.8 -13.3 -2.6C-13.3 -8 -9.5 -11.9 -4.9 -11.9C-2 -11.9 0 -10.2 0 -7.5C0 -10.2 2 -11.9 4.9 -11.9C9.5 -11.9 13.3 -8 13.3 -2.6C13.3 4.8 4.7 9.3 0 13.8Z" transform="translate(0 -0.7)" fill="#F28EB4" stroke="#D15E95" stroke-width="1.5" stroke-linejoin="round"/>
  </g>
</svg>
